M48
; DRILL file {KiCad 7.0.1} date Wed Feb 21 21:29:59 2024
; FORMAT={-:-/ absolute / metric / decimal}
; #@! TF.CreationDate,2024-02-21T21:29:59-07:00
; #@! TF.GenerationSoftware,Kicad,Pcbnew,7.0.1
; #@! TF.FileFunction,MixedPlating,1,2
FMAT,2
METRIC
; #@! TA.AperFunction,Plated,PTH,ComponentDrill
T1C1.000
; #@! TA.AperFunction,Plated,PTH,ComponentDrill
T2C1.270
; #@! TA.AperFunction,Plated,PTH,ComponentDrill
T3C1.300
; #@! TA.AperFunction,NonPlated,NPTH,ComponentDrill
T4C1.702
; #@! TA.AperFunction,NonPlated,NPTH,ComponentDrill
T5C3.000
; #@! TA.AperFunction,NonPlated,NPTH,ComponentDrill
T6C3.429
; #@! TA.AperFunction,NonPlated,NPTH,ComponentDrill
T7C4.300
%
G90
G05
T1
X214.38Y-56.14
X214.38Y-58.68
X214.38Y-61.22
X214.38Y-63.76
X214.38Y-66.3
X214.38Y-68.84
X214.38Y-71.38
X214.38Y-73.92
X214.38Y-76.46
X216.92Y-76.46
X219.46Y-76.46
X222.0Y-76.46
X224.54Y-76.46
X227.08Y-76.46
X229.62Y-56.14
X229.62Y-58.68
X229.62Y-61.22
X229.62Y-63.76
X229.62Y-66.3
X229.62Y-68.84
X229.62Y-71.38
X229.62Y-73.92
X229.62Y-76.46
T2
X140.0Y-111.8
X145.0Y-113.9
X173.5Y-114.8
X178.5Y-116.9
X197.0Y-140.8
X202.0Y-142.9
X217.0Y-205.3
X222.0Y-207.4
X233.0Y-113.8
X238.0Y-115.9
X239.0Y-144.8
X244.0Y-146.9
X264.0Y-126.8
X265.0Y-95.8
X269.0Y-128.9
X270.0Y-97.9
X296.0Y-129.8
X301.0Y-131.9
X302.0Y-93.8
X307.0Y-95.9
X328.3Y-145.8
X333.0Y-109.8
X333.3Y-147.9
X338.0Y-111.9
T3
X98.65Y-61.85
X98.65Y-74.35
X103.65Y-61.85
X103.65Y-74.35
X113.65Y-61.85
X113.65Y-74.35
X118.65Y-61.85
X118.65Y-74.35
X128.65Y-61.85
X128.65Y-74.35
X133.65Y-61.85
X133.65Y-74.35
X148.65Y-61.85
X148.65Y-74.35
X153.65Y-61.85
X153.65Y-74.35
X163.65Y-61.85
X163.65Y-74.35
X168.65Y-61.85
X168.65Y-74.35
X178.65Y-61.85
X178.65Y-74.35
X183.65Y-61.85
X183.65Y-74.35
T4
X139.5Y-108.0
X150.5Y-108.0
X173.0Y-111.0
X184.0Y-111.0
X196.5Y-137.0
X207.5Y-137.0
X216.5Y-201.5
X227.5Y-201.5
X232.5Y-110.0
X238.5Y-141.0
X243.5Y-110.0
X249.5Y-141.0
X263.5Y-123.0
X264.5Y-92.0
X274.5Y-123.0
X275.5Y-92.0
X295.5Y-126.0
X301.5Y-90.0
X306.5Y-126.0
X312.5Y-90.0
X327.8Y-142.0
X332.5Y-106.0
X338.8Y-142.0
X343.5Y-106.0
T5
X145.0Y-102.05
X150.0Y-104.25
X178.5Y-105.05
X183.5Y-107.25
X202.0Y-131.05
X207.0Y-133.25
X222.0Y-195.55
X227.0Y-197.75
X238.0Y-104.05
X243.0Y-106.25
X244.0Y-135.05
X249.0Y-137.25
X269.0Y-117.05
X270.0Y-86.05
X274.0Y-119.25
X275.0Y-88.25
X301.0Y-120.05
X306.0Y-122.25
X307.0Y-84.05
X312.0Y-86.25
X333.3Y-136.05
X338.0Y-100.05
X338.3Y-138.25
X343.0Y-102.25
T6
X145.0Y-108.0
X178.5Y-111.0
X202.0Y-137.0
X222.0Y-201.5
X238.0Y-110.0
X244.0Y-141.0
X269.0Y-123.0
X270.0Y-92.0
X301.0Y-126.0
X307.0Y-90.0
X333.3Y-142.0
X338.0Y-106.0
T7
X89.0Y-60.0
X89.0Y-220.0
X222.0Y-111.5
X222.0Y-168.5
X355.0Y-60.0
X355.0Y-220.0
T0
M30
